Patient4_TMGait_0pt5_01_left_22_GRF.mot
version=1
nRows=71
nColumns=19
inDegrees=no
endheader
time	F1x	F1y	F1z	M1x	M1y	M1z	F2x	F2y	F2z	M2x	M2y	M2z	EC1x	EC1y	EC1z	EC2x	EC2y	EC2z
29.42	-1.282	-7.8157	0.57872	1.0915	1.8247	-5.4385	-41.0856	720.3386	-50.7112	264.3308	66.3974	724.6657	-0.0592	0.0182	-0.0073	-0.0462	0.0165	0.9585
29.4337	-0.97146	-4.9216	0.34764	0.61995	1.1426	-3.234	-38.4323	724.1072	-50.5995	266.1346	64.7367	725.3038	-0.0592	0.0182	-0.0073	-0.0462	0.0165	0.9585
29.4474	-0.70742	-2.4388	0.20376	0.19337	0.55021	-1.3616	-35.3205	729.6913	-50.2593	268.6239	62.6586	726.79	-0.0592	0.0182	-0.0073	-0.0462	0.0165	0.9585
29.4611	-0.50663	-0.50528	0.12822	-0.15353	0.091858	0.071272	-31.8842	737.3086	-49.7702	271.8368	60.3177	729.4163	-0.0592	0.0182	-0.0073	-0.0462	0.0165	0.9585
29.4749	-0.37974	0.87517	0.10322	-0.41225	-0.23424	1.0742	-28.2457	746.8422	-49.3191	275.7024	57.9499	733.202	-0.0592	0.0182	-0.0073	-0.0462	0.0165	0.9585
29.4886	-0.31874	1.7651	0.10667	-0.58904	-0.44317	1.7019	-24.507	757.789	-49.0835	280.0175	55.7687	737.8249	-0.0592	0.0182	-0.0073	-0.0462	0.0165	0.9585
29.5023	-0.31364	2.2572	0.12842	-0.69347	-0.56692	2.0301	-20.7575	769.3257	-49.1829	284.4678	53.9194	742.6633	-0.0592	0.0182	-0.0073	-0.0462	0.0165	0.9585
29.516	-0.35796	2.4412	0.15687	-0.73354	-0.63504	2.1294	-17.0819	780.3945	-49.6648	288.6562	52.4715	746.8781	-0.0592	0.0182	-0.0073	-0.0462	0.0165	0.9585
29.5297	-0.43813	2.3738	0.19388	-0.70887	-0.67927	2.0311	-13.5522	789.7876	-50.5118	292.1357	51.4279	749.4845	-0.0592	0.0182	-0.0073	-0.0462	0.0165	0.9585
29.5434	-0.54982	2.0786	0.23246	-0.61173	-0.7152	1.7419	-10.2235	796.3139	-51.6454	294.4709	50.7316	749.5001	-0.0592	0.0182	-0.0073	-0.0462	0.0165	0.9585
29.5571	-0.67452	1.541	0.27841	-0.42681	-0.75918	1.2256	-7.1098	799.0071	-52.9393	295.3184	50.2701	746.1188	-0.0592	0.0182	-0.0073	-0.0462	0.0165	0.9585
29.5709	-0.7922	0.73345	0.32433	-0.13766	-0.80764	0.43264	-4.1925	797.3442	-54.2379	294.5092	49.8956	738.9136	-0.0592	0.0182	-0.0073	-0.0462	0.0165	0.9585
29.5846	-0.87852	-0.36884	0.36989	0.2683	-0.85686	-0.67835	-1.4179	791.3803	-55.3787	292.0973	49.4499	727.9541	-0.0592	0.0182	-0.0073	-0.0462	0.0165	0.9585
29.5983	-0.88471	-1.7618	0.40294	0.78926	-0.87613	-2.1134	1.2911	781.7701	-56.2391	288.3603	48.8035	713.8321	-0.0592	0.0182	-0.0073	-0.0462	0.0165	0.9585
29.612	-0.74744	-3.3641	0.41141	1.3924	-0.82224	-3.7854	4.0231	769.658	-56.7615	283.7523	47.8756	697.572	-0.0592	0.0182	-0.0073	-0.0462	0.0165	0.9585
29.6257	-0.37227	-4.9776	0.36992	2.0011	-0.62967	-5.4887	6.8491	756.5264	-56.9596	278.8436	46.6504	680.5007	-0.0592	0.0182	-0.0073	-0.0462	0.0165	0.9585
29.6394	0.34034	-6.2192	0.24452	2.4698	-0.22368	-6.8164	9.7926	743.9966	-56.9037	274.2457	45.1808	664.0789	-0.0592	0.0182	-0.0073	-0.0462	0.0165	0.9585
29.6531	1.4841	-6.4614	-0.0099379	2.5615	0.47683	-7.0972	12.821	733.5463	-56.6984	270.5065	43.5675	649.6505	-0.0592	0.0182	-0.0073	-0.0462	0.0165	0.9585
29.6669	3.1279	-4.7927	-0.44569	1.9328	1.5471	-5.3538	15.8439	726.2079	-56.4542	267.9965	41.9353	638.1735	-0.0592	0.0182	-0.0073	-0.0462	0.0165	0.9585
29.6806	5.2619	-0.0013658	-1.1027	0.13144	3.0212	-0.28818	18.7594	722.3527	-56.2667	266.8317	40.4007	630.0199	-0.0592	0.0182	-0.0073	-0.0462	0.0165	0.9585
29.6943	7.747	9.3469	-2.0034	-3.3762	4.8683	9.6222	21.4921	721.6122	-56.189	266.8468	39.0342	624.9121	-0.0592	0.0182	-0.0073	-0.0462	0.0165	0.9585
29.708	10.2237	24.719	-3.1234	-9.1344	6.9255	25.95	23.9848	722.9104	-56.2137	267.6112	37.8474	621.952	-0.0592	0.0182	-0.0073	-0.0462	0.0165	0.9585
29.7217	12.0365	47.2587	-4.3631	-17.566	8.8379	49.9367	26.2025	724.5838	-56.2607	268.4782	36.7879	619.7247	-0.0592	0.0182	-0.0073	-0.0462	0.0165	0.9585
29.7354	12.1934	77.2707	-5.4968	-28.7805	9.9961	81.9399	28.1142	724.5276	-56.182	268.6468	35.7503	616.4437	-0.0592	0.0182	-0.0073	-0.0462	0.0165	0.9585
29.7491	9.7363	113.8277	-6.1888	-42.4238	9.6931	121.0098	29.686	720.465	-55.7717	267.2676	34.5913	610.1867	-0.0592	0.0182	-0.0073	-0.0462	0.0165	0.9585
29.7629	4.7468	154.7431	-5.9883	-57.657	7.4773	164.7982	30.8912	710.339	-54.7824	263.5875	33.1364	599.2161	-0.0592	0.0182	-0.0073	-0.0462	0.0165	0.9585
29.7766	-1.5021	196.3625	-4.2799	-73.0825	3.1746	209.2643	31.7137	692.6135	-53.0034	257.0558	31.2372	582.2394	-0.0592	0.0182	-0.0073	-0.0462	0.0165	0.9585
29.7903	-7.6255	234.6124	-0.71518	-87.1846	-3.005	249.7963	32.15	666.4502	-50.327	247.3845	28.8234	558.5448	-0.0592	0.0182	-0.0073	-0.0462	0.0165	0.9585
29.804	-12.818	268.1629	4.0824	-99.4964	-10.0514	284.7683	32.2105	631.9067	-46.7937	234.6068	25.9313	528.1701	-0.0592	0.0182	-0.0073	-0.0462	0.0165	0.9585
29.8177	-16.7357	298.3267	9.4773	-110.5455	-17.1302	315.4935	31.9449	589.8209	-42.5993	219.036	22.6925	491.7946	-0.0592	0.0182	-0.0073	-0.0462	0.0165	0.9585
29.8314	-19.3679	327.5158	14.7901	-121.2697	-23.5057	344.4845	31.3833	541.5095	-37.969	201.1587	19.259	450.5055	-0.0592	0.0182	-0.0073	-0.0462	0.0165	0.9585
29.8451	-20.8101	358.0647	19.618	-132.5508	-28.7802	374.141	30.4815	488.451	-33.0625	181.5224	15.7601	405.5316	-0.0592	0.0182	-0.0073	-0.0462	0.0165	0.9585
29.8589	-21.2192	391.5853	23.7067	-144.9813	-32.7605	406.1004	29.1069	432.1504	-27.9998	160.6832	12.323	358.138	-0.0592	0.0182	-0.0073	-0.0462	0.0165	0.9585
29.8726	-20.8359	428.8214	27.112	-158.8047	-35.6153	441.1577	27.1054	374.1074	-22.9238	139.1915	9.0987	309.5772	-0.0592	0.0182	-0.0073	-0.0462	0.0165	0.9585
29.8863	-19.8817	469.7344	30.0796	-173.9565	-37.7113	479.3043	24.3757	315.8662	-18.0291	117.61	6.2625	261.1169	-0.0592	0.0182	-0.0073	-0.0462	0.0165	0.9585
29.9	-18.5652	513.674	33.0212	-190.136	-39.5722	519.9309	20.9184	259.0609	-13.5477	96.535	3.9848	214.0638	-0.0592	0.0182	-0.0073	-0.0462	0.0165	0.9585
29.9137	-17.0907	559.5629	36.2739	-206.8965	-41.6406	561.9992	16.8893	205.4296	-9.6931	76.6086	2.3679	169.787	-0.0592	0.0182	-0.0073	-0.0462	0.0165	0.9585
29.9274	-15.6745	606.0432	40.0596	-223.7023	-44.2395	604.2155	12.6055	156.6755	-6.5903	58.4652	1.3927	129.6294	-0.0592	0.0182	-0.0073	-0.0462	0.0165	0.9585
29.9411	-14.4522	651.6059	44.3454	-239.9834	-47.4056	645.1539	8.4855	114.1684	-4.2425	42.6223	0.91906	94.6543	-0.0592	0.0182	-0.0073	-0.0462	0.0165	0.9585
29.9549	-13.4261	694.6186	48.8844	-255.15	-50.9113	683.2762	4.8955	78.6934	-2.5496	29.3855	0.75034	65.4607	-0.0592	0.0182	-0.0073	-0.0462	0.0165	0.9585
29.9686	-12.5257	733.3699	53.2893	-268.5977	-54.3616	716.9831	2.0599	50.4289	-1.376	18.8341	0.7166	42.1763	-0.0592	0.0182	-0.0073	-0.0462	0.0165	0.9585
29.9823	-11.6495	766.1531	57.1925	-279.7344	-57.3634	744.6871	0.066485	29.0627	-0.5907	10.8593	0.69854	24.5431	-0.0592	0.0182	-0.0073	-0.0462	0.0165	0.9585
29.996	-10.7198	791.4875	60.3487	-288.05	-59.6479	765.0581	-1.1182	13.9544	-0.10199	5.223	0.6457	12.0493	-0.0592	0.0182	-0.0073	-0.0462	0.0165	0.9585
30.0097	-9.6802	808.3208	62.6616	-293.1864	-61.0934	777.1997	-1.6349	4.2072	0.16919	1.5893	0.55021	3.9583	-0.0592	0.0182	-0.0073	-0.0462	0.0165	0.9585
30.0234	-8.4787	816.2636	64.1657	-295.0195	-61.7103	780.8561	-1.7199	-1.2955	0.28691	-0.46023	0.44283	-0.64175	-0.0592	0.0182	-0.0073	-0.0462	0.0165	0.9585
30.0371	-7.0956	815.7624	64.931	-293.7284	-61.56	776.5734	-1.5593	-3.7506	0.30474	-1.3719	0.34101	-2.7283	-0.0592	0.0182	-0.0073	-0.0462	0.0165	0.9585
30.0509	-5.5286	808.1383	65.0429	-289.8114	-60.729	765.7154	-1.2874	-4.2314	0.2577	-1.545	0.2575	-3.1818	-0.0592	0.0182	-0.0073	-0.0462	0.0165	0.9585
30.0646	-3.8291	795.3809	64.5895	-284.0065	-59.3265	750.2673	-1	-3.5857	0.17822	-1.2959	0.19587	-2.6934	-0.0592	0.0182	-0.0073	-0.0462	0.0165	0.9585
30.0783	-2.0963	779.7846	63.7255	-277.1557	-57.5406	732.4621	-0.74276	-2.4327	0.085301	-0.85544	0.16048	-1.775	-0.0592	0.0182	-0.0073	-0.0462	0.0165	0.9585
30.092	-0.44735	763.6036	62.6351	-270.083	-55.5908	714.4463	-0.54693	-1.1709	-0.0042154	-0.37349	0.15119	-0.74891	-0.0592	0.0182	-0.0073	-0.0462	0.0165	0.9585
30.1057	1.0006	748.7876	61.5187	-263.5032	-53.7095	698.0299	-0.41639	-0.035481	-0.084724	0.061327	0.16614	0.18656	-0.0592	0.0182	-0.0073	-0.0462	0.0165	0.9585
30.1194	2.1727	736.8029	60.5399	-257.9585	-52.0779	684.5156	-0.33706	0.86931	-0.14394	0.40908	0.1887	0.94308	-0.0592	0.0182	-0.0073	-0.0462	0.0165	0.9585
30.1331	3.0349	728.5503	59.8076	-253.794	-50.807	674.649	-0.29652	1.5293	-0.18039	0.66245	0.21055	1.515	-0.0592	0.0182	-0.0073	-0.0462	0.0165	0.9585
30.1469	3.6083	724.3854	59.3749	-251.1603	-49.9363	668.6497	-0.27271	1.972	-0.19051	0.83128	0.21928	1.9198	-0.0592	0.0182	-0.0073	-0.0462	0.0165	0.9585
30.1606	3.973	724.1733	59.2402	-250.0345	-49.4349	666.2675	-0.2615	2.2598	-0.17448	0.93659	0.2131	2.2132	-0.0592	0.0182	-0.0073	-0.0462	0.0165	0.9585
30.1743	4.2426	727.3869	59.3688	-250.2534	-49.2306	666.9009	-0.25407	2.4463	-0.13963	0.99891	0.19373	2.4346	-0.0592	0.0182	-0.0073	-0.0462	0.0165	0.9585
30.188	4.5543	733.2311	59.6822	-251.5612	-49.2068	669.7163	-0.24751	2.5698	-0.094939	1.0343	0.16645	2.61	-0.0592	0.0182	-0.0073	-0.0462	0.0165	0.9585
30.2017	5.0474	740.7817	60.1029	-253.6519	-49.2479	673.7844	-0.24373	2.6526	-0.050311	1.0529	0.1403	2.7553	-0.0592	0.0182	-0.0073	-0.0462	0.0165	0.9585
30.2154	5.847	749.1173	60.5461	-256.2107	-49.2355	678.2059	-0.24277	2.6966	-0.011639	1.0579	0.12007	2.8597	-0.0592	0.0182	-0.0073	-0.0462	0.0165	0.9585
30.2291	7.0508	757.4306	60.9522	-258.9574	-49.0807	682.2222	-0.25585	2.6886	0.013508	1.0443	0.11473	2.8973	-0.0592	0.0182	-0.0073	-0.0462	0.0165	0.9585
30.2429	8.7151	765.1264	61.2449	-261.6791	-48.6911	685.2962	-0.28406	2.5896	0.028771	0.99656	0.12229	2.8068	-0.0592	0.0182	-0.0073	-0.0462	0.0165	0.9585
30.2566	10.8484	771.8441	61.3539	-264.2325	-47.9898	687.1376	-0.33353	2.3413	0.027055	0.89031	0.14945	2.529	-0.0592	0.0182	-0.0073	-0.0462	0.0165	0.9585
30.2703	13.4185	777.3826	61.2178	-266.5155	-46.9159	687.6266	-0.40384	1.8603	0.0097898	0.6929	0.19336	1.9868	-0.0592	0.0182	-0.0073	-0.0462	0.0165	0.9585
30.284	16.3559	781.564	60.8442	-268.4177	-45.4794	686.6992	-0.48268	1.0531	-0.025584	0.36812	0.25359	1.0877	-0.0592	0.0182	-0.0073	-0.0462	0.0165	0.9585
30.2977	19.5833	784.1564	60.2996	-269.8013	-43.7484	684.2653	-0.55033	-0.15171	-0.071138	-0.11294	0.31787	-0.23355	-0.0592	0.0182	-0.0073	-0.0462	0.0165	0.9585
30.3114	23.0239	784.9045	59.6868	-270.5205	-41.8313	680.2177	-0.56553	-1.7783	-0.12469	-0.76071	0.37123	-2.0023	-0.0592	0.0182	-0.0073	-0.0462	0.0165	0.9585
30.3251	26.6106	783.5975	59.0859	-270.4533	-39.8212	674.4733	-0.47072	-3.7549	-0.17567	-1.5487	0.38076	-4.145	-0.0592	0.0182	-0.0073	-0.0462	0.0165	0.9585
30.3389	30.2876	780.1601	58.5503	-269.5404	-37.7975	667.052	-0.19147	-5.8701	-0.21336	-2.3935	0.30359	-6.4331	-0.0592	0.0182	-0.0073	-0.0462	0.0165	0.9585
30.3526	33.9732	774.7557	58.1195	-267.8216	-35.8423	658.173	0.3625	-7.6961	-0.21625	-3.1225	0.081177	-8.4086	-0.0592	0.0182	-0.0073	-0.0462	0.0165	0.9585
30.3663	37.5733	767.8396	57.8337	-265.4497	-34.0443	648.2879	1.2882	-8.5001	-0.16631	-3.4396	-0.34105	-9.2942	-0.0592	0.0182	-0.0073	-0.0462	0.0165	0.9585
30.38	40.963	760.066	57.7174	-262.6558	-32.4825	638.0133	2.6714	-7.1845	-0.030792	-2.9019	-1.0241	-7.9285	-0.0592	0.0182	-0.0073	-0.0462	0.0165	0.9585
